<svg width="19" height="17" viewBox="0 0 19 17" fill="none" xmlns="http://www.w3.org/2000/svg">
<path d="M9.105 16.5593L8.78364 16.2812C1.87456 10.4423 0 8.38478 0 5.04825C0 2.26781 2.14235 0.043457 4.82029 0.043457C7.0162 0.043457 8.24805 1.32246 9.105 2.32342C9.96194 1.32246 11.1938 0.043457 13.3897 0.043457C16.0676 0.043457 18.21 2.26781 18.21 5.04825C18.21 8.38478 16.3354 10.4423 9.42635 16.2812L9.105 16.5593ZM4.82029 1.15563C2.7315 1.15563 1.07118 2.87951 1.07118 5.04825C1.07118 7.8843 2.78506 9.775 9.105 15.1135C15.4249 9.775 17.1388 7.8843 17.1388 5.04825C17.1388 2.87951 15.4785 1.15563 13.3897 1.15563C11.5151 1.15563 10.4975 2.32342 9.69414 3.26877L9.105 3.99168L8.51585 3.26877C7.71247 2.32342 6.69485 1.15563 4.82029 1.15563Z" fill="white"/>
</svg>
