<svg width="19" height="17" viewBox="0 0 19 17" fill="none" xmlns="http://www.w3.org/2000/svg">
<path d="M9.105 16.5158L8.78364 16.2378C1.87456 10.3989 0 8.34133 0 5.0048C0 2.22435 2.14235 0 4.82029 0C7.0162 0 8.24805 1.279 9.105 2.27996C9.96194 1.279 11.1938 0 13.3897 0C16.0676 0 18.21 2.22435 18.21 5.0048C18.21 8.34133 16.3354 10.3989 9.42635 16.2378L9.105 16.5158ZM4.82029 1.11218C2.7315 1.11218 1.07118 2.83605 1.07118 5.0048C1.07118 7.84085 2.78506 9.73154 9.105 15.07C15.4249 9.73154 17.1388 7.84085 17.1388 5.0048C17.1388 2.83605 15.4785 1.11218 13.3897 1.11218C11.5151 1.11218 10.4975 2.27996 9.69414 3.22531L9.105 3.94823L8.51585 3.22531C7.71247 2.27996 6.69485 1.11218 4.82029 1.11218Z" fill="white"/>
<path d="M4.82029 1.11218C2.7315 1.11218 1.07118 2.83605 1.07118 5.0048C1.07118 7.84085 2.78506 9.73154 9.105 15.07C15.4249 9.73154 17.1388 7.84085 17.1388 5.0048C17.1388 2.83605 15.4785 1.11218 13.3897 1.11218C11.5151 1.11218 10.4975 2.27996 9.69414 3.22531L9.105 3.94823L8.51585 3.22531C7.71247 2.27996 6.69485 1.11218 4.82029 1.11218Z" fill="white"/>
</svg>
