<svg width="18" height="18" viewBox="0 0 18 18" fill="none" xmlns="http://www.w3.org/2000/svg">
<path d="M8.99758 4.38206C6.44215 4.38206 4.3798 6.44441 4.3798 8.99985C4.3798 11.5553 6.44215 13.6176 8.99758 13.6176C11.553 13.6176 13.6154 11.5553 13.6154 8.99985C13.6154 6.44441 11.553 4.38206 8.99758 4.38206ZM8.99758 12.0011C7.345 12.0011 5.99636 10.6524 5.99636 8.99985C5.99636 7.34726 7.345 5.99862 8.99758 5.99862C10.6502 5.99862 11.9988 7.34726 11.9988 8.99985C11.9988 10.6524 10.6502 12.0011 8.99758 12.0011ZM13.8045 3.11672C13.2078 3.11672 12.726 3.59854 12.726 4.19518C12.726 4.79183 13.2078 5.27364 13.8045 5.27364C14.4011 5.27364 14.8829 4.79408 14.8829 4.19518C14.8831 4.05351 14.8554 3.91319 14.8012 3.78226C14.7471 3.65134 14.6677 3.53238 14.5675 3.4322C14.4673 3.33202 14.3483 3.25259 14.2174 3.19845C14.0865 3.14432 13.9462 3.11654 13.8045 3.11672ZM17.999 8.99985C17.999 7.75703 18.0103 6.52547 17.9405 5.2849C17.8707 3.84395 17.5419 2.56511 16.4883 1.51141C15.4323 0.455469 14.1557 0.129004 12.7148 0.0592082C11.472 -0.0105878 10.2404 0.00066969 8.99983 0.00066969C7.75702 0.00066969 6.52546 -0.0105878 5.28489 0.0592082C3.84395 0.129004 2.5651 0.457721 1.51141 1.51141C0.455469 2.56736 0.129004 3.84395 0.0592081 5.2849C-0.0105877 6.52772 0.000669689 7.75928 0.000669689 8.99985C0.000669689 10.2404 -0.0105877 11.4742 0.0592081 12.7148C0.129004 14.1557 0.45772 15.4346 1.51141 16.4883C2.56736 17.5442 3.84395 17.8707 5.28489 17.9405C6.52771 18.0103 7.75927 17.999 8.99983 17.999C10.2426 17.999 11.4742 18.0103 12.7148 17.9405C14.1557 17.8707 15.4346 17.542 16.4883 16.4883C17.5442 15.4323 17.8707 14.1557 17.9405 12.7148C18.0125 11.4742 17.999 10.2427 17.999 8.99985ZM16.0177 14.3088C15.8533 14.7186 15.6552 15.0248 15.3377 15.34C15.0203 15.6575 14.7163 15.8556 14.3066 16.02C13.1223 16.4905 10.3102 16.3847 8.99758 16.3847C7.68497 16.3847 4.87062 16.4905 3.68634 16.0222C3.27657 15.8579 2.97037 15.6597 2.65516 15.3423C2.33771 15.0248 2.13958 14.7209 1.97522 14.3111C1.50691 13.1246 1.61273 10.3125 1.61273 8.99985C1.61273 7.68723 1.50691 4.87288 1.97522 3.6886C2.13958 3.27883 2.33771 2.97263 2.65516 2.65742C2.97262 2.34221 3.27657 2.14183 3.68634 1.97747C4.87062 1.50916 7.68497 1.61498 8.99758 1.61498C10.3102 1.61498 13.1245 1.50916 14.3088 1.97747C14.7186 2.14183 15.0248 2.33996 15.34 2.65742C15.6575 2.97488 15.8556 3.27883 16.0199 3.6886C16.4883 4.87288 16.3824 7.68723 16.3824 8.99985C16.3824 10.3125 16.4883 13.1246 16.0177 14.3088Z" fill="white"/>
</svg>
