<svg width="15" height="18" viewBox="0 0 15 18" fill="none" xmlns="http://www.w3.org/2000/svg">
<path d="M11.3205 4.5V4.6H11.4205H14.3182C14.635 4.6 14.9 4.87177 14.9 5.22V17.28C14.9 17.6282 14.635 17.9 14.3182 17.9H0.681818C0.36498 17.9 0.1 17.6282 0.1 17.28V5.22C0.1 4.87177 0.36498 4.6 0.681818 4.6H3.57955H3.67955V4.5V4.14C3.67955 1.90402 5.39552 0.1 7.5 0.1C9.60448 0.1 11.3205 1.90402 11.3205 4.14V4.5ZM9.88636 4.6H9.98636V4.5V4.14C9.98636 2.69723 8.87918 1.52 7.5 1.52C6.12082 1.52 5.01364 2.69723 5.01364 4.14V4.5V4.6H5.11364H9.88636ZM13.4659 16.48H13.5659V16.38V6.12V6.02H13.4659H11.4205H11.3205V6.12V8.1C11.3205 8.14898 11.2835 8.18 11.25 8.18H10.0568C10.0234 8.18 9.98636 8.14898 9.98636 8.1V6.12V6.02H9.88636H5.11364H5.01364V6.12V8.1C5.01364 8.14898 4.97664 8.18 4.94318 8.18H3.75C3.71654 8.18 3.67955 8.14898 3.67955 8.1V6.12V6.02H3.57955H1.53409H1.43409V6.12V16.38V16.48H1.53409H13.4659Z" fill="white" stroke="#FFA9C1" stroke-width="0.2"/>
</svg>
