<svg width="18" height="11" viewBox="0 0 18 11" fill="none" xmlns="http://www.w3.org/2000/svg">
<path fill-rule="evenodd" clip-rule="evenodd" d="M8.83383 10.2586H9.92517C9.92517 10.2586 10.2526 10.2041 10.4163 10.0404C10.58 9.87668 10.58 9.54927 10.58 9.54927C10.58 9.54927 10.58 8.13052 11.2348 7.91226C11.8896 7.69399 12.7627 9.331 13.6357 9.93124C14.2906 10.4223 14.7817 10.3132 14.7817 10.3132L17.1826 10.2586C17.1826 10.2586 18.4377 10.2041 17.8374 9.1673C17.7829 9.11274 17.51 8.45793 16.0367 7.09375C14.5088 5.675 14.7271 5.94783 16.5278 3.49231C17.6192 2.01899 18.0557 1.14591 17.9466 0.709374C17.8374 0.327403 17.0189 0.436538 17.0189 0.436538H14.2906C14.2906 0.436538 14.0723 0.381971 13.9632 0.491105C13.7994 0.60024 13.7449 0.763942 13.7449 0.763942C13.7449 0.763942 13.3083 1.90985 12.7627 2.89207C11.5622 4.91105 11.0711 5.02019 10.9074 4.91106C10.4708 4.63822 10.58 3.71057 10.58 3.11033C10.58 1.14591 10.9074 0.327403 9.97974 0.109134C9.70691 0.0545667 9.48864 0 8.7247 0C7.74249 0 6.92398 -2.1141e-07 6.48744 0.218269C6.16004 0.381971 5.94177 0.709374 6.10547 0.709374C6.26917 0.709374 6.70571 0.818509 6.92398 1.09135C7.14225 1.58245 7.14225 2.40096 7.14225 2.40096C7.14225 2.40096 7.30595 4.74735 6.76027 5.02019C6.3783 5.23846 5.8872 4.80192 4.79585 2.94663C4.25018 2.01899 3.81364 0.927643 3.81364 0.927643C3.81364 0.927643 3.75908 0.709375 3.59538 0.60024C3.43167 0.491106 3.15884 0.436538 3.15884 0.436538H0.594177C0.594177 0.436538 0.212206 0.436538 0.0485042 0.60024C-0.0606303 0.763942 0.0485042 1.03678 0.0485042 1.03678C0.0485042 1.03678 2.06749 5.72956 4.35932 8.13052C6.48744 10.4223 8.83383 10.2586 8.83383 10.2586Z" fill="white"/>
</svg>
